<?xml version="1.0" encoding="UTF-8"?>
<svg width="361px" height="88px" viewBox="0 0 361 88" version="1.1" xmlns="http://www.w3.org/2000/svg" xmlns:xlink="http://www.w3.org/1999/xlink">
    <title>PrimaryMark_FullColor_OnLight</title>
    <g id="Page-1" stroke="none" stroke-width="1" fill="none" fill-rule="evenodd">
        <g id="PrimaryMark_FullColor_OnLight" transform="translate(0.500000, 0.900000)" fill-rule="nonzero">
            <polygon id="Path" fill="#8A4A51" points="63.7 61.4 63.7 61.5 69.6 66.7"></polygon>
            <g id="Group" transform="translate(0.000000, 0.000000)">
                <path d="M43.2,0 L43.2,0 L43.2,15.8 C50.8,15.8 57.6,18.9 62.6,23.8 C67.6,28.8 70.6,35.6 70.6,43.2 L86.4,43.2 C86.4,19.3 67.1,0 43.2,0" id="Path" fill="#F4D036"></path>
                <path d="M43.2,0 C19.3,0 -2.84217094e-14,19.4 -2.84217094e-14,43.2 L15.8,43.2 C15.8,35.6 18.9,28.8 23.8,23.8 C28.8,18.8 35.6,15.8 43.2,15.8 L43.2,0 Z" id="Path" fill="#E31E30"></path>
                <path d="M86.4,43.2 L70.6,43.2 C70.6,50.2 68,56.6 63.7,61.4 L63.7,61.4 L63.7,61.4 L69.6,66.7 L75.5,72 C82.3,64.4 86.5,54.2 86.4,43.2" id="Path" fill="#839794"></path>
                <path d="M15.8,43.2 L-1.42108547e-14,43.2 C-1.42108547e-14,54.2 4.2,64.3 10.9,72 L22.7,61.5 L22.7,61.5 C18.4,56.6 15.8,50.2 15.8,43.2" id="Path" fill="#5B6670"></path>
                <path d="M63.7,61.5 C58.6,67.1 51.4,70.7 43.2,70.7 L43.2,86.5 C56,86.5 67.6,80.9 75.5,72 L69.6,66.7 L63.7,61.5 Z" id="Path" fill="#8A4A51"></path>
                <path d="M22.7,61.5 L10.9,72 L10.9,72 C18.8,80.9 30.4,86.5 43.2,86.5 L43.2,86.5 L43.2,70.7 C35,70.6 27.8,67.1 22.7,61.5" id="Path" fill="#A3A983"></path>
            </g>
            <polygon id="Path" fill="#839794" points="22.7 61.4 10.9 72 22.7 61.5"></polygon>
            <polygon id="Path" fill="#202944" points="127.4 27.8 105.5 27.8 105.3 27.9 105.2 28.1 105.2 58.3 105.3 58.6 105.5 58.7 127.4 58.7 127.6 58.6 127.7 58.3 127.7 53.8 127.6 53.5 127.4 53.4 111.1 53.4 111.1 45.2 123.3 45.2 123.5 45.1 123.6 44.8 123.6 40.5 123.5 40.3 123.3 40.1 111.1 40.1 111.1 33 127.4 33 127.6 32.9 127.7 32.7 127.7 28.1 127.6 27.9"></polygon>
            <polygon id="Path" fill="#202944" points="165.7 27.8 160.1 27.8 159.8 28 150.8 50.9 141.8 28 141.5 27.8 135.8 27.8 135.5 27.9 135.5 28.3 148 58.5 148.3 58.7 152.9 58.7 153.2 58.5 166 28.3 166 27.9"></polygon>
            <polygon id="Path" fill="#202944" points="197.3 27.8 175.4 27.8 175.2 27.9 175.1 28.1 175.1 58.3 175.2 58.6 175.4 58.7 197.3 58.7 197.5 58.6 197.6 58.3 197.6 53.8 197.5 53.5 197.3 53.4 181 53.4 181 45.2 193.2 45.2 193.4 45.1 193.5 44.8 193.5 40.5 193.4 40.3 193.2 40.1 181 40.1 181 33 197.3 33 197.5 32.9 197.6 32.7 197.6 28.1 197.5 27.9"></polygon>
            <polygon id="Path" fill="#202944" points="234.5 27.8 229.4 27.8 229.2 27.9 229.1 28.1 229.1 48.5 227.3 46 227.3 46 213.5 27.9 213.2 27.8 208.7 27.8 208.4 27.9 208.3 28.1 208.3 58.3 208.4 58.6 208.7 58.7 213.7 58.7 214 58.6 214.1 58.3 214.1 38 216 40.6 216 40.6 230.1 58.5 230.4 58.7 234.5 58.7 234.8 58.6 234.9 58.3 234.9 28.1 234.8 27.9"></polygon>
            <polygon id="Path" fill="#202944" points="271.1 27.8 245.3 27.8 245.1 27.9 245 28.1 245 32.7 245.1 32.9 245.3 33 255.3 33 255.3 58.3 255.4 58.6 255.6 58.7 260.8 58.7 261.1 58.6 261.2 58.3 261.2 33 271.1 33 271.4 32.9 271.5 32.7 271.5 28.1 271.4 27.9"></polygon>
            <polygon id="Path" fill="#202944" points="287.1 27.8 281.9 27.8 281.7 27.9 281.6 28.1 281.6 58.3 281.7 58.6 281.9 58.7 287.1 58.7 287.4 58.6 287.5 58.3 287.5 28.1 287.4 27.9"></polygon>
            <path d="M312.6,27.8 L299.9,27.8 L299.6,27.9 L299.5,28.2 L299.5,58.4 L299.6,58.7 L299.9,58.8 L312.6,58.8 C317,58.8 320.4,57.5 322.8,55.3 C325.2,53.1 326.4,50.1 326.4,46.7 L326.4,40 C326.4,36.6 325.2,33.6 322.8,31.4 C320.4,29.1 317,27.8 312.6,27.8 M305.6,33 L312.4,33 C317.7,33 320.5,35.9 320.5,40.2 L320.5,46.3 C320.5,50.6 317.6,53.4 312.4,53.5 L305.6,53.5 L305.6,33 Z" id="Shape" fill="#202944"></path>
            <polygon id="Path" fill="#202944" points="359.6 33 359.9 32.9 360 32.7 360 28.1 359.9 27.9 359.6 27.8 337.8 27.8 337.5 27.9 337.4 28.1 337.4 58.3 337.5 58.6 337.8 58.7 359.6 58.7 359.9 58.6 360 58.3 360 53.8 359.9 53.5 359.6 53.4 343.3 53.4 343.3 45.2 355.5 45.2 355.7 45.1 355.8 44.8 355.8 40.5 355.7 40.3 355.5 40.1 343.3 40.1 343.3 33"></polygon>
            <g id="Group" transform="translate(30.600000, 32.300000)" fill="#202944">
                <path d="M14.2,8.7 L13.7,8.5 L13.6,8.4 L13.6,8.4 L13.2,8.1 L12.5,8.1 L12,8.1 L11.6,8.4 L11.6,8.4 C11.3,8.6 7.6,10.7 0,10.7 L0,13.9 C6.8,13.9 11,12.3 12.6,11.5 C14.2,12.3 18.3,13.9 25.2,13.9 L25.2,10.7 C21.1,10.7 18.2,10.1 16.3,9.5 C15.3,9.2 14.6,8.9 14.2,8.7" id="Path"></path>
                <path d="M16.3,1.4 C15.3,1.1 14.7,0.8 14.2,0.6 L13.7,0.4 L13.6,0.3 L13.6,0.3 L13.2,2.84217094e-14 L12.5,2.84217094e-14 L12,2.84217094e-14 L11.6,0.3 L11.6,0.3 C11.3,0.5 7.6,2.6 0,2.6 L0,5.8 C6.8,5.8 11,4.2 12.6,3.4 C14.2,4.2 18.3,5.8 25.2,5.8 L25.2,2.6 C21.1,2.7 18.2,2 16.3,1.4" id="Path"></path>
                <path d="M14.2,16.8 L13.7,16.6 L13.6,16.5 L13.6,16.5 L13.2,16.2 L12.5,16.2 L12,16.2 L11.6,16.5 L11.6,16.5 C11.3,16.7 7.6,18.8 0,18.8 L0,22 C6.8,22 11,20.4 12.6,19.6 C14.2,20.4 18.3,22 25.2,22 L25.2,18.8 C21.1,18.8 18.2,18.2 16.3,17.6 C15.3,17.3 14.6,17 14.2,16.8" id="Path"></path>
            </g>
        </g>
    </g>
</svg>