<?xml version="1.0" standalone="no"?>
<!DOCTYPE svg PUBLIC "-//W3C//DTD SVG 20010904//EN"
 "http://www.w3.org/TR/2001/REC-SVG-20010904/DTD/svg10.dtd">
<svg version="1.0" xmlns="http://www.w3.org/2000/svg"
 width="16.000000pt" height="16.000000pt" viewBox="0 0 16.000000 16.000000"
 preserveAspectRatio="xMidYMid meet">

<g transform="translate(0.000000,16.000000) scale(0.100000,-0.100000)"
fill="#000000" stroke="none">
<path d="M50 120 c-19 -6 -12 -8 29 -9 30 -1 52 1 50 3 -11 9 -57 13 -79 6z"/>
<path d="M50 80 c-19 -6 -12 -8 29 -9 30 -1 52 1 50 3 -11 9 -57 13 -79 6z"/>
<path d="M50 40 c-19 -6 -12 -8 29 -9 30 -1 52 1 50 3 -11 9 -57 13 -79 6z"/>
</g>
</svg>
